<svg width="423" height="423" viewBox="0 0 423 423" fill="none" xmlns="http://www.w3.org/2000/svg">
<path d="M211.5 310.443C211.5 310.443 211.5 310.443 211.401 310.443C207.164 313.265 202.749 315.81 198.183 318.061V383.344C198.183 386.849 199.575 390.212 202.055 392.69C204.533 395.17 207.896 396.563 211.401 396.563C214.907 396.563 218.27 395.17 220.748 392.69C223.228 390.212 224.62 386.849 224.62 383.344V318.061C220.053 315.81 215.638 313.265 211.401 310.443H211.5Z" fill="#16A34A" fill-opacity="0.87"/>
<path d="M327.33 103.435C317.768 80.6032 301.671 61.1072 281.062 47.3956C260.453 33.6841 236.252 26.3687 211.5 26.3687C186.747 26.3687 162.547 33.6841 141.938 47.3956C121.33 61.1072 105.234 80.6032 95.6711 103.435C75.0946 112.968 57.6571 128.161 45.397 147.239C33.1369 166.317 26.561 188.491 26.438 211.167C26.2561 275.311 78.2555 328.814 142.333 330.467C161.717 330.973 180.929 326.711 198.281 318.057V259.317L126.273 223.328C123.135 221.76 120.749 219.008 119.64 215.681C118.53 212.353 118.788 208.721 120.357 205.583C121.926 202.444 124.677 200.058 128.005 198.949C131.333 197.841 134.966 198.098 138.103 199.667L198.281 229.774V145.404C198.281 141.898 199.674 138.536 202.153 136.057C204.631 133.578 207.994 132.185 211.5 132.185C215.006 132.185 218.368 133.578 220.848 136.057C223.326 138.536 224.719 141.898 224.719 145.404V190.117L284.898 160.011C286.452 159.234 288.142 158.771 289.875 158.648C291.607 158.525 293.349 158.744 294.995 159.293C296.643 159.842 298.167 160.711 299.479 161.849C300.792 162.987 301.867 164.373 302.644 165.926C303.421 167.48 303.883 169.171 304.007 170.904C304.13 172.637 303.911 174.377 303.361 176.024C302.812 177.672 301.944 179.195 300.806 180.508C299.667 181.82 298.282 182.896 296.729 183.672L224.719 219.66V318.057C241.14 326.248 259.244 330.495 277.594 330.467H280.668C344.745 328.814 396.744 275.345 396.562 211.2C396.451 188.517 389.881 166.333 377.621 147.248C365.359 128.163 347.916 112.965 327.33 103.435Z" fill="#16A34A" fill-opacity="0.87"/>
</svg>
